# xmcd
#
# Track frame offsets:
#	150
#	26542
#	62080
#	103347
#	119595
#	144490
#	172967
#	195302
#	211707
#	231562
#
# Disc length: 3372
#
# Revision: 6
# Processed by: cddbd v1.5.2PL0 Copyright (c) Steve Scherf et al.
# Submitted via: ExactAudioCopy v0.90b4
# Normalized: r5:DSETVAR1
#
DISCID=8c0d2a0a
DTITLE=Various / Jazz Piano Anthology,  Vol. 3: Swingers
DYEAR=1997
DGENRE=Jazz
TTITLE0=Kenny Barron & Tommy Flanagan / Stella by Starlight
TTITLE1=Wynton Kelly / Kelly's Blues
TTITLE2=Horace Silver / Hear Me Talkin' to You
TTITLE3=Cedar Walton / Home Come'n
TTITLE4=Hank Jones / Caravan
TTITLE5=Hank Jones / They Can't Take That Away from Me
TTITLE6=Duke Ellington / Take the "A" Train
TTITLE7=Duke Ellington / Band Call
TTITLE8=Count Basie / Basie's Thought
TTITLE9=Kenny Drew / Blues in B-flat
EXTD=
EXTT0=Tommy Flanagan/Kenny Barron
EXTT1=Wynton Kelly
EXTT2=Horace Silver
EXTT3=Cedar Walton
EXTT4=Hank Jones
EXTT5=Hank Jones
EXTT6=Duke Ellington
EXTT7=Duke Ellington
EXTT8=Count Basie
EXTT9=Kenny Drew
PLAYORDER=
.
